<svg width="1057" height="887" viewBox="0 0 1057 887" fill="none" xmlns="http://www.w3.org/2000/svg">
<g filter="url(#filter0_d_2932_2670)">
<path fill-rule="evenodd" clip-rule="evenodd" d="M751.08 416.091C744.437 404.226 739.951 382.153 742.17 373.687C744.405 365.233 757.722 371.982 762.177 361.847C766.632 351.639 724.383 351.639 737.715 338.068C751.08 324.522 751.08 338.068 768.835 338.068C786.654 338.068 793.281 344.866 793.281 353.344C793.281 361.846 811.116 366.914 811.116 366.914C811.116 366.914 839.985 365.233 853.365 365.233C866.713 365.233 880.014 365.233 880.014 371.994C880.014 378.791 864.478 400.852 851.129 400.852C837.781 400.852 837.781 429.673 848.926 431.342C860.023 433.06 868.901 409.318 875.559 409.318C880.363 409.318 884.025 436.241 890.572 463.986C892.3 462.426 894.108 461.301 895.994 461.301C904.793 461.301 900.385 437.825 906.267 431.1C912.117 424.388 909.2 403.174 913.607 403.174C917.983 403.174 944.362 409.874 942.904 404.299C941.43 398.699 959.027 379.686 956.094 369.635C953.129 359.597 966.351 347.272 966.351 334.996C966.351 322.696 980.999 319.334 991.256 312.621C1001.48 305.909 1019.08 296.983 1022.01 302.571C1024.96 308.146 1046.9 312.621 1038.13 302.571C1029.32 292.496 1029.32 285.82 1035.19 283.582C1041.07 281.32 1044 270.157 1044 270.157C1044 270.157 1024.96 267.907 1022.01 261.219C1019.06 254.531 1007.33 247.83 1007.33 242.231C1007.33 236.631 997.09 238.868 988.308 244.468C979.493 250.068 963.402 237.768 944.347 245.605C925.307 253.418 920.9 262.332 912.117 261.231C903.318 260.094 904.777 266.831 897.453 272.407C890.144 278.006 884.263 284.719 879.887 284.719C875.512 284.719 860.832 290.319 860.832 290.319C860.832 290.319 871.105 307.07 865.239 314.883C859.373 322.72 844.693 314.883 828.618 318.257C812.479 321.608 805.155 313.77 793.408 315.996C781.708 318.257 774.384 310.396 768.534 311.533C762.668 312.646 753.87 301.458 756.803 292.52C759.751 283.606 750.937 271.294 745.087 278.006C739.206 284.719 730.454 281.345 730.454 291.419C730.454 301.458 737.779 313.77 728.98 320.471C720.182 327.171 673.288 330.546 664.521 324.946C655.691 319.346 617.627 315.996 616.153 310.396C614.694 304.808 602.963 294.77 595.639 294.77C588.298 294.77 566.31 302.583 560.476 299.233C554.61 295.882 539.93 286.932 529.705 285.844C519.432 284.707 503.309 279.107 501.851 274.644C500.376 270.169 476.945 267.92 472.538 263.457C468.147 258.982 453.498 257.893 453.498 252.293C453.498 246.706 459.364 237.768 459.364 231.043C459.364 224.294 476.929 217.654 476.929 213.155C476.929 208.692 460.838 200.831 460.838 200.831C460.838 200.831 450.565 186.305 438.834 186.305C427.103 186.305 418.304 170.679 408.079 169.566C397.822 168.441 400.739 152.791 394.889 147.191C389.055 141.591 393.43 128.202 403.687 134.891C413.929 141.591 433 134.891 425.66 124.828C418.32 114.765 405.146 105.864 405.146 100.264C405.146 94.6518 413.96 77.8765 403.687 73.3894C393.446 68.9507 384.632 62.2261 381.699 54.425C378.766 46.5877 367.019 41 367.019 41L352.386 42.1248C352.386 42.1248 343.588 60.0128 337.722 62.2382C331.872 64.4757 311.342 67.8259 301.085 73.4015C290.844 78.9893 261.563 65.5884 245.44 65.5884C229.286 65.5884 219.013 77.8886 226.353 81.2509C233.709 84.5891 232.235 108.053 232.235 108.053C232.235 108.053 241.033 137.128 254.207 134.903C267.397 132.677 283.536 144.953 271.788 147.203C260.073 149.441 254.207 159.503 252.749 168.453C251.274 177.379 254.207 188.542 245.44 189.679C236.642 190.792 227.843 193.03 227.843 205.33C227.843 217.654 208.803 214.292 205.871 218.731C202.922 223.218 195.614 245.593 191.19 248.931C186.815 252.281 161.878 253.406 160.419 263.469C158.945 273.507 147.277 285.832 139.937 284.695C132.597 283.582 119.391 279.095 115.016 285.832C110.608 292.532 91.5845 280.232 87.1932 283.582C82.786 286.92 59.3232 301.47 59.3232 310.384C59.3232 319.334 84.2603 319.334 82.7701 330.534C81.3116 341.709 91.5845 353.997 98.9246 359.597C106.217 365.185 117.933 378.586 112.067 385.31C106.217 391.998 97.4502 393.099 84.2603 390.874C71.0387 388.624 72.4972 395.337 49.0661 391.998C25.6192 388.636 24.1607 402.061 15.3621 409.886C14.839 410.382 13.9988 411.072 13 411.955C24.0656 418.631 28.7264 430.532 47.132 435.95C68.5339 442.227 87.7481 425.464 87.7481 437.607C87.7481 449.762 37.2396 447.259 36.1774 451.008C35.0994 454.794 88.2554 503.765 115.174 500.004C142.03 496.218 161.799 474.048 154.11 470.674C146.437 467.36 158.501 453.524 165.667 456.052C172.769 458.555 166.745 480.313 174.973 485.333C183.232 490.34 180.474 499.568 174.973 511.3C169.503 523.02 180.474 545.999 182.075 559.013C183.739 571.967 195.265 590.81 199.117 610.065C202.954 629.344 218.854 664.491 233.709 685.838C248.516 707.197 259.994 749.068 269.854 759.095C279.747 769.133 305.017 799.672 305.017 818.528C305.017 837.359 331.904 863.701 341.226 868.745C350.547 873.764 370.84 862.879 375.786 851.171C380.748 839.439 408.713 834.819 410.346 824.781C412.01 814.754 414.69 806.808 424.598 805.526C434.49 804.268 434.49 796.334 434.49 785.449C434.49 774.576 435.584 759.083 445.477 749.455C455.306 739.816 456.97 713.861 450.962 703.399C444.906 692.961 448.203 678.303 453.689 667.817C459.158 657.379 456.97 645.212 467.417 644.377C477.833 643.555 493.179 636.407 504.149 625.135C515.152 613.814 548.618 598.321 560.666 590.798C572.731 583.263 609.51 558.566 620.481 544.754C631.419 530.917 662.682 526.346 676.966 515.025C691.25 503.741 685.732 497.887 688.475 485.732C691.265 473.601 737.319 468.557 754.869 468.557C758.467 468.557 761.4 468.291 764.095 467.88C763.889 448.396 756.184 425.247 751.08 416.091Z" fill="#E2E2E2"/>
<path fill-rule="evenodd" clip-rule="evenodd" d="M751.08 416.091C744.437 404.226 739.951 382.153 742.17 373.687C744.405 365.233 757.722 371.982 762.177 361.847C766.632 351.639 724.383 351.639 737.715 338.068C751.08 324.522 751.08 338.068 768.835 338.068C786.654 338.068 793.281 344.866 793.281 353.344C793.281 361.846 811.116 366.914 811.116 366.914C811.116 366.914 839.985 365.233 853.365 365.233C866.713 365.233 880.014 365.233 880.014 371.994C880.014 378.791 864.478 400.852 851.129 400.852C837.781 400.852 837.781 429.673 848.926 431.342C860.023 433.06 868.901 409.318 875.559 409.318C880.363 409.318 884.025 436.241 890.572 463.986C892.3 462.426 894.108 461.301 895.994 461.301C904.793 461.301 900.385 437.825 906.267 431.1C912.117 424.388 909.2 403.174 913.607 403.174C917.983 403.174 944.362 409.874 942.904 404.299C941.43 398.699 959.027 379.686 956.094 369.635C953.129 359.597 966.351 347.272 966.351 334.996C966.351 322.696 980.999 319.334 991.256 312.621C1001.48 305.909 1019.08 296.983 1022.01 302.571C1024.96 308.146 1046.9 312.621 1038.13 302.571C1029.32 292.496 1029.32 285.82 1035.19 283.582C1041.07 281.32 1044 270.157 1044 270.157C1044 270.157 1024.96 267.907 1022.01 261.219C1019.06 254.531 1007.33 247.83 1007.33 242.231C1007.33 236.631 997.09 238.868 988.308 244.468C979.493 250.068 963.402 237.768 944.347 245.605C925.307 253.418 920.9 262.332 912.117 261.231C903.318 260.094 904.777 266.831 897.453 272.407C890.144 278.006 884.263 284.719 879.887 284.719C875.512 284.719 860.832 290.319 860.832 290.319C860.832 290.319 871.105 307.07 865.239 314.883C859.373 322.72 844.693 314.883 828.618 318.257C812.479 321.608 805.155 313.77 793.408 315.996C781.708 318.257 774.384 310.396 768.534 311.533C762.668 312.646 753.87 301.458 756.803 292.52C759.751 283.606 750.937 271.294 745.087 278.006C739.206 284.719 730.454 281.345 730.454 291.419C730.454 301.458 737.779 313.77 728.98 320.471C720.182 327.171 673.288 330.546 664.521 324.946C655.691 319.346 617.627 315.996 616.153 310.396C614.694 304.808 602.963 294.77 595.639 294.77C588.298 294.77 566.31 302.583 560.476 299.233C554.61 295.882 539.93 286.932 529.705 285.844C519.432 284.707 503.309 279.107 501.851 274.644C500.376 270.169 476.945 267.92 472.538 263.457C468.147 258.982 453.498 257.893 453.498 252.293C453.498 246.706 459.364 237.768 459.364 231.043C459.364 224.294 476.929 217.654 476.929 213.155C476.929 208.692 460.838 200.831 460.838 200.831C460.838 200.831 450.565 186.305 438.834 186.305C427.103 186.305 418.304 170.679 408.079 169.566C397.822 168.441 400.739 152.791 394.889 147.191C389.055 141.591 393.43 128.202 403.687 134.891C413.929 141.591 433 134.891 425.66 124.828C418.32 114.765 405.146 105.864 405.146 100.264C405.146 94.6518 413.96 77.8765 403.687 73.3894C393.446 68.9507 384.632 62.2261 381.699 54.425C378.766 46.5877 367.019 41 367.019 41L352.386 42.1248C352.386 42.1248 343.588 60.0128 337.722 62.2382C331.872 64.4757 311.342 67.8259 301.085 73.4015C290.844 78.9893 261.563 65.5884 245.44 65.5884C229.286 65.5884 219.013 77.8886 226.353 81.2509C233.709 84.5891 232.235 108.053 232.235 108.053C232.235 108.053 241.033 137.128 254.207 134.903C267.397 132.677 283.536 144.953 271.788 147.203C260.073 149.441 254.207 159.503 252.749 168.453C251.274 177.379 254.207 188.542 245.44 189.679C236.642 190.792 227.843 193.03 227.843 205.33C227.843 217.654 208.803 214.292 205.871 218.731C202.922 223.218 195.614 245.593 191.19 248.931C186.815 252.281 161.878 253.406 160.419 263.469C158.945 273.507 147.277 285.832 139.937 284.695C132.597 283.582 119.391 279.095 115.016 285.832C110.608 292.532 91.5845 280.232 87.1932 283.582C82.786 286.92 59.3232 301.47 59.3232 310.384C59.3232 319.334 84.2603 319.334 82.7701 330.534C81.3116 341.709 91.5845 353.997 98.9246 359.597C106.217 365.185 117.933 378.586 112.067 385.31C106.217 391.998 97.4502 393.099 84.2603 390.874C71.0387 388.624 72.4972 395.337 49.0661 391.998C25.6192 388.636 24.1607 402.061 15.3621 409.886C14.839 410.382 13.9988 411.072 13 411.955C24.0656 418.631 28.7264 430.532 47.132 435.95C68.5339 442.227 87.7481 425.464 87.7481 437.607C87.7481 449.762 37.2396 447.259 36.1774 451.008C35.0994 454.794 88.2554 503.765 115.174 500.004C142.03 496.218 161.799 474.048 154.11 470.674C146.437 467.36 158.501 453.524 165.667 456.052C172.769 458.555 166.745 480.313 174.973 485.333C183.232 490.34 180.474 499.568 174.973 511.3C169.503 523.02 180.474 545.999 182.075 559.013C183.739 571.967 195.265 590.81 199.117 610.065C202.954 629.344 218.854 664.491 233.709 685.838C248.516 707.197 259.994 749.068 269.854 759.095C279.747 769.133 305.017 799.672 305.017 818.528C305.017 837.359 331.904 863.701 341.226 868.745C350.547 873.764 370.84 862.879 375.786 851.171C380.748 839.439 408.713 834.819 410.346 824.781C412.01 814.754 414.69 806.808 424.598 805.526C434.49 804.268 434.49 796.334 434.49 785.449C434.49 774.576 435.584 759.083 445.477 749.455C455.306 739.816 456.97 713.861 450.962 703.399C444.906 692.961 448.203 678.303 453.689 667.817C459.158 657.379 456.97 645.212 467.417 644.377C477.833 643.555 493.179 636.407 504.149 625.135C515.152 613.814 548.618 598.321 560.666 590.798C572.731 583.263 609.51 558.566 620.481 544.754C631.419 530.917 662.682 526.346 676.966 515.025C691.25 503.741 685.732 497.887 688.475 485.732C691.265 473.601 737.319 468.557 754.869 468.557C758.467 468.557 761.4 468.291 764.095 467.88C763.889 448.396 756.184 425.247 751.08 416.091Z" stroke="#BEBEBE"/>
</g>
<path fill-rule="evenodd" clip-rule="evenodd" d="M751.08 411.091C744.437 399.226 739.951 377.153 742.17 368.687C744.405 360.233 757.722 366.982 762.177 356.847C766.632 346.639 724.383 346.639 737.715 333.068C751.08 319.522 751.08 333.068 768.835 333.068C786.654 333.068 793.281 339.866 793.281 348.344C793.281 356.846 811.116 361.914 811.116 361.914C811.116 361.914 839.985 360.233 853.365 360.233C866.713 360.233 880.014 360.233 880.014 366.994C880.014 373.791 864.478 395.852 851.129 395.852C837.781 395.852 837.781 424.673 848.926 426.342C860.023 428.06 868.901 404.318 875.559 404.318C880.363 404.318 884.025 431.241 890.572 458.986C892.3 457.426 894.108 456.301 895.994 456.301C904.793 456.301 900.385 432.825 906.267 426.1C912.117 419.388 909.2 398.174 913.607 398.174C917.983 398.174 944.362 404.874 942.904 399.299C941.43 393.699 959.027 374.686 956.094 364.635C953.129 354.597 966.351 342.272 966.351 329.996C966.351 317.696 980.999 314.334 991.256 307.621C1001.48 300.909 1019.08 291.983 1022.01 297.571C1024.96 303.146 1046.9 307.621 1038.13 297.571C1029.32 287.496 1029.32 280.82 1035.19 278.582C1041.07 276.32 1044 265.157 1044 265.157C1044 265.157 1024.96 262.907 1022.01 256.219C1019.06 249.531 1007.33 242.83 1007.33 237.231C1007.33 231.631 997.09 233.868 988.308 239.468C979.493 245.068 963.402 232.768 944.347 240.605C925.307 248.418 920.9 257.332 912.117 256.231C903.318 255.094 904.777 261.831 897.453 267.407C890.144 273.006 884.263 279.719 879.887 279.719C875.512 279.719 860.832 285.319 860.832 285.319C860.832 285.319 871.105 302.07 865.239 309.883C859.373 317.72 844.693 309.883 828.618 313.257C812.479 316.608 805.155 308.77 793.408 310.996C781.708 313.257 774.384 305.396 768.534 306.533C762.668 307.646 753.87 296.458 756.803 287.52C759.751 278.606 750.937 266.294 745.087 273.006C739.206 279.719 730.454 276.345 730.454 286.419C730.454 296.458 737.779 308.77 728.98 315.471C720.182 322.171 673.288 325.546 664.521 319.946C655.691 314.346 617.627 310.996 616.153 305.396C614.694 299.808 602.963 289.77 595.639 289.77C588.298 289.77 566.31 297.583 560.476 294.233C554.61 290.882 539.93 281.932 529.705 280.844C519.432 279.707 503.309 274.107 501.851 269.644C500.376 265.169 476.945 262.92 472.538 258.457C468.147 253.982 453.498 252.893 453.498 247.293C453.498 241.706 459.364 232.768 459.364 226.043C459.364 219.294 476.929 212.654 476.929 208.155C476.929 203.692 460.838 195.831 460.838 195.831C460.838 195.831 450.565 181.305 438.834 181.305C427.103 181.305 418.304 165.679 408.079 164.566C397.822 163.441 400.739 147.791 394.889 142.191C389.055 136.591 393.43 123.202 403.687 129.891C413.929 136.591 433 129.891 425.66 119.828C418.32 109.765 405.146 100.864 405.146 95.2637C405.146 89.6518 413.96 72.8765 403.687 68.3894C393.446 63.9507 384.632 57.2261 381.699 49.425C378.766 41.5877 367.019 36 367.019 36L352.386 37.1248C352.386 37.1248 343.588 55.0128 337.722 57.2382C331.872 59.4757 311.342 62.8259 301.085 68.4015C290.844 73.9893 261.563 60.5884 245.44 60.5884C229.286 60.5884 219.013 72.8886 226.353 76.2509C233.709 79.5891 232.235 103.053 232.235 103.053C232.235 103.053 241.033 132.128 254.207 129.903C267.397 127.677 283.536 139.953 271.788 142.203C260.073 144.441 254.207 154.503 252.749 163.453C251.274 172.379 254.207 183.542 245.44 184.679C236.642 185.792 227.843 188.03 227.843 200.33C227.843 212.654 208.803 209.292 205.871 213.731C202.922 218.218 195.614 240.593 191.19 243.931C186.815 247.281 161.878 248.406 160.419 258.469C158.945 268.507 147.277 280.832 139.937 279.695C132.597 278.582 119.391 274.095 115.016 280.832C110.608 287.532 91.5845 275.232 87.1932 278.582C82.786 281.92 59.3232 296.47 59.3232 305.384C59.3232 314.334 84.2603 314.334 82.7701 325.534C81.3116 336.709 91.5845 348.997 98.9246 354.597C106.217 360.185 117.933 373.586 112.067 380.31C106.217 386.998 97.4502 388.099 84.2603 385.874C71.0387 383.624 72.4972 390.337 49.0661 386.998C25.6192 383.636 24.1607 397.061 15.3621 404.886C14.839 405.382 13.9988 406.072 13 406.955C24.0656 413.631 28.7264 425.532 47.132 430.95C68.5339 437.227 87.7481 420.464 87.7481 432.607C87.7481 444.762 37.2396 442.259 36.1774 446.008C35.0994 449.794 88.2554 498.765 115.174 495.004C142.03 491.218 161.799 469.048 154.11 465.674C146.437 462.36 158.501 448.524 165.667 451.052C172.769 453.555 166.745 475.313 174.973 480.333C183.232 485.34 180.474 494.568 174.973 506.3C169.503 518.02 180.474 540.999 182.075 554.013C183.739 566.967 195.265 585.81 199.117 605.065C202.954 624.344 218.854 659.491 233.709 680.838C248.516 702.197 259.994 744.068 269.854 754.095C279.747 764.133 305.017 794.672 305.017 813.528C305.017 832.359 331.904 858.701 341.226 863.745C350.547 868.764 370.84 857.879 375.786 846.171C380.748 834.439 408.713 829.819 410.346 819.781C412.01 809.754 414.69 801.808 424.598 800.526C434.49 799.268 434.49 791.334 434.49 780.449C434.49 769.576 435.584 754.083 445.477 744.455C455.306 734.816 456.97 708.861 450.962 698.399C444.906 687.961 448.203 673.303 453.689 662.817C459.158 652.379 456.97 640.212 467.417 639.377C477.833 638.555 493.179 631.407 504.149 620.135C515.152 608.814 548.618 593.321 560.666 585.798C572.731 578.263 609.51 553.566 620.481 539.754C631.419 525.917 662.682 521.346 676.966 510.025C691.25 498.741 685.732 492.887 688.475 480.732C691.265 468.601 737.319 463.557 754.869 463.557C758.467 463.557 761.4 463.291 764.095 462.88C763.889 443.396 756.184 420.247 751.08 411.091Z" fill="#ECECEC" stroke="#CBCBCB"/>
<path fill-rule="evenodd" clip-rule="evenodd" d="M751.08 406.091C744.437 394.226 739.951 372.153 742.17 363.687C744.405 355.233 757.722 361.982 762.177 351.847C766.632 341.639 724.383 341.639 737.715 328.068C751.08 314.522 751.08 328.068 768.835 328.068C786.654 328.068 793.281 334.866 793.281 343.344C793.281 351.846 811.116 356.914 811.116 356.914C811.116 356.914 839.985 355.233 853.365 355.233C866.713 355.233 880.014 355.233 880.014 361.994C880.014 368.791 864.478 390.852 851.129 390.852C837.781 390.852 837.781 419.673 848.926 421.342C860.023 423.06 868.901 399.318 875.559 399.318C880.363 399.318 884.025 426.241 890.572 453.986C892.3 452.426 894.108 451.301 895.994 451.301C904.793 451.301 900.385 427.825 906.267 421.1C912.117 414.388 909.2 393.174 913.607 393.174C917.983 393.174 944.362 399.874 942.904 394.299C941.43 388.699 959.027 369.686 956.094 359.635C953.129 349.597 966.351 337.272 966.351 324.996C966.351 312.696 980.999 309.334 991.256 302.621C1001.48 295.909 1019.08 286.983 1022.01 292.571C1024.96 298.146 1046.9 302.621 1038.13 292.571C1029.32 282.496 1029.32 275.82 1035.19 273.582C1041.07 271.32 1044 260.157 1044 260.157C1044 260.157 1024.96 257.907 1022.01 251.219C1019.06 244.531 1007.33 237.83 1007.33 232.231C1007.33 226.631 997.09 228.868 988.308 234.468C979.493 240.068 963.402 227.768 944.347 235.605C925.307 243.418 920.9 252.332 912.117 251.231C903.318 250.094 904.777 256.831 897.453 262.407C890.144 268.006 884.263 274.719 879.887 274.719C875.512 274.719 860.832 280.319 860.832 280.319C860.832 280.319 871.105 297.07 865.239 304.883C859.373 312.72 844.693 304.883 828.618 308.257C812.479 311.608 805.155 303.77 793.408 305.996C781.708 308.257 774.384 300.396 768.534 301.533C762.668 302.646 753.87 291.458 756.803 282.52C759.751 273.606 750.937 261.294 745.087 268.006C739.206 274.719 730.454 271.345 730.454 281.419C730.454 291.458 737.779 303.77 728.98 310.471C720.182 317.171 673.288 320.546 664.521 314.946C655.691 309.346 617.627 305.996 616.153 300.396C614.694 294.808 602.963 284.77 595.639 284.77C588.298 284.77 566.31 292.583 560.476 289.233C554.61 285.882 539.93 276.932 529.705 275.844C519.432 274.707 503.309 269.107 501.851 264.644C500.376 260.169 476.945 257.92 472.538 253.457C468.147 248.982 453.498 247.893 453.498 242.293C453.498 236.706 459.364 227.768 459.364 221.043C459.364 214.294 476.929 207.654 476.929 203.155C476.929 198.692 460.838 190.831 460.838 190.831C460.838 190.831 450.565 176.305 438.834 176.305C427.103 176.305 418.304 160.679 408.079 159.566C397.822 158.441 400.739 142.791 394.889 137.191C389.055 131.591 393.43 118.202 403.687 124.891C413.929 131.591 433 124.891 425.66 114.828C418.32 104.765 405.146 95.8635 405.146 90.2637C405.146 84.6518 413.96 67.8765 403.687 63.3894C393.446 58.9507 384.632 52.2261 381.699 44.425C378.766 36.5877 367.019 31 367.019 31L352.386 32.1248C352.386 32.1248 343.588 50.0128 337.722 52.2382C331.872 54.4757 311.342 57.8259 301.085 63.4015C290.844 68.9893 261.563 55.5884 245.44 55.5884C229.286 55.5884 219.013 67.8886 226.353 71.2509C233.709 74.5891 232.235 98.0527 232.235 98.0527C232.235 98.0527 241.033 127.128 254.207 124.903C267.397 122.677 283.536 134.953 271.788 137.203C260.073 139.441 254.207 149.503 252.749 158.453C251.274 167.379 254.207 178.542 245.44 179.679C236.642 180.792 227.843 183.03 227.843 195.33C227.843 207.654 208.803 204.292 205.871 208.731C202.922 213.218 195.614 235.593 191.19 238.931C186.815 242.281 161.878 243.406 160.419 253.469C158.945 263.507 147.277 275.832 139.937 274.695C132.597 273.582 119.391 269.095 115.016 275.832C110.608 282.532 91.5845 270.232 87.1932 273.582C82.786 276.92 59.3232 291.47 59.3232 300.384C59.3232 309.334 84.2603 309.334 82.7701 320.534C81.3116 331.709 91.5845 343.997 98.9246 349.597C106.217 355.185 117.933 368.586 112.067 375.31C106.217 381.998 97.4502 383.099 84.2603 380.874C71.0387 378.624 72.4972 385.337 49.0661 381.998C25.6192 378.636 24.1607 392.061 15.3621 399.886C14.839 400.382 13.9988 401.072 13 401.955C24.0656 408.631 28.7264 420.532 47.132 425.95C68.5339 432.227 87.7481 415.464 87.7481 427.607C87.7481 439.762 37.2396 437.259 36.1774 441.008C35.0994 444.794 88.2554 493.765 115.174 490.004C142.03 486.218 161.799 464.048 154.11 460.674C146.437 457.36 158.501 443.524 165.667 446.052C172.769 448.555 166.745 470.313 174.973 475.333C183.232 480.34 180.474 489.568 174.973 501.3C169.503 513.02 180.474 535.999 182.075 549.013C183.739 561.967 195.265 580.81 199.117 600.065C202.954 619.344 218.854 654.491 233.709 675.838C248.516 697.197 259.994 739.068 269.854 749.095C279.747 759.133 305.017 789.672 305.017 808.528C305.017 827.359 331.904 853.701 341.226 858.745C350.547 863.764 370.84 852.879 375.786 841.171C380.748 829.439 408.713 824.819 410.346 814.781C412.01 804.754 414.69 796.808 424.598 795.526C434.49 794.268 434.49 786.334 434.49 775.449C434.49 764.576 435.584 749.083 445.477 739.455C455.306 729.816 456.97 703.861 450.962 693.399C444.906 682.961 448.203 668.303 453.689 657.817C459.158 647.379 456.97 635.212 467.417 634.377C477.833 633.555 493.179 626.407 504.149 615.135C515.152 603.814 548.618 588.321 560.666 580.798C572.731 573.263 609.51 548.566 620.481 534.754C631.419 520.917 662.682 516.346 676.966 505.025C691.25 493.741 685.732 487.887 688.475 475.732C691.265 463.601 737.319 458.557 754.869 458.557C758.467 458.557 761.4 458.291 764.095 457.88C763.889 438.396 756.184 415.247 751.08 406.091Z" fill="#ECECEC" stroke="#CFCFCF"/>
<path fill-rule="evenodd" clip-rule="evenodd" d="M751.08 400.091C744.437 388.226 739.951 366.153 742.17 357.687C744.405 349.233 757.722 355.982 762.177 345.847C766.632 335.639 724.383 335.639 737.715 322.068C751.08 308.522 751.08 322.068 768.835 322.068C786.654 322.068 793.281 328.866 793.281 337.344C793.281 345.846 811.116 350.914 811.116 350.914C811.116 350.914 839.985 349.233 853.365 349.233C866.713 349.233 880.014 349.233 880.014 355.994C880.014 362.791 864.478 384.852 851.129 384.852C837.781 384.852 837.781 413.673 848.926 415.342C860.023 417.06 868.901 393.318 875.559 393.318C880.363 393.318 884.025 420.241 890.572 447.986C892.3 446.426 894.108 445.301 895.994 445.301C904.793 445.301 900.385 421.825 906.267 415.1C912.117 408.388 909.2 387.174 913.607 387.174C917.983 387.174 944.362 393.874 942.904 388.299C941.43 382.699 959.027 363.686 956.094 353.635C953.129 343.597 966.351 331.272 966.351 318.996C966.351 306.696 980.999 303.334 991.256 296.621C1001.48 289.909 1019.08 280.983 1022.01 286.571C1024.96 292.146 1046.9 296.621 1038.13 286.571C1029.32 276.496 1029.32 269.82 1035.19 267.582C1041.07 265.32 1044 254.157 1044 254.157C1044 254.157 1024.96 251.907 1022.01 245.219C1019.06 238.531 1007.33 231.83 1007.33 226.231C1007.33 220.631 997.09 222.868 988.308 228.468C979.493 234.068 963.402 221.768 944.347 229.605C925.307 237.418 920.9 246.332 912.117 245.231C903.318 244.094 904.777 250.831 897.453 256.407C890.144 262.006 884.263 268.719 879.887 268.719C875.512 268.719 860.832 274.319 860.832 274.319C860.832 274.319 871.105 291.07 865.239 298.883C859.373 306.72 844.693 298.883 828.618 302.257C812.479 305.608 805.155 297.77 793.408 299.996C781.708 302.257 774.384 294.396 768.534 295.533C762.668 296.646 753.87 285.458 756.803 276.52C759.751 267.606 750.937 255.294 745.087 262.006C739.206 268.719 730.454 265.345 730.454 275.419C730.454 285.458 737.779 297.77 728.98 304.471C720.182 311.171 673.288 314.546 664.521 308.946C655.691 303.346 617.627 299.996 616.153 294.396C614.694 288.808 602.963 278.77 595.639 278.77C588.298 278.77 566.31 286.583 560.476 283.233C554.61 279.882 539.93 270.932 529.705 269.844C519.432 268.707 503.309 263.107 501.851 258.644C500.376 254.169 476.945 251.92 472.538 247.457C468.147 242.982 453.498 241.893 453.498 236.293C453.498 230.706 459.364 221.768 459.364 215.043C459.364 208.294 476.929 201.654 476.929 197.155C476.929 192.692 460.838 184.831 460.838 184.831C460.838 184.831 450.565 170.305 438.834 170.305C427.103 170.305 418.304 154.679 408.079 153.566C397.822 152.441 400.739 136.791 394.889 131.191C389.055 125.591 393.43 112.202 403.687 118.891C413.929 125.591 433 118.891 425.66 108.828C418.32 98.7652 405.146 89.8635 405.146 84.2637C405.146 78.6518 413.96 61.8765 403.687 57.3894C393.446 52.9507 384.632 46.2261 381.699 38.425C378.766 30.5877 367.019 25 367.019 25L352.386 26.1248C352.386 26.1248 343.588 44.0128 337.722 46.2382C331.872 48.4757 311.342 51.8259 301.085 57.4015C290.844 62.9893 261.563 49.5884 245.44 49.5884C229.286 49.5884 219.013 61.8886 226.353 65.2509C233.709 68.5891 232.235 92.0527 232.235 92.0527C232.235 92.0527 241.033 121.128 254.207 118.903C267.397 116.677 283.536 128.953 271.788 131.203C260.073 133.441 254.207 143.503 252.749 152.453C251.274 161.379 254.207 172.542 245.44 173.679C236.642 174.792 227.843 177.03 227.843 189.33C227.843 201.654 208.803 198.292 205.871 202.731C202.922 207.218 195.614 229.593 191.19 232.931C186.815 236.281 161.878 237.406 160.419 247.469C158.945 257.507 147.277 269.832 139.937 268.695C132.597 267.582 119.391 263.095 115.016 269.832C110.608 276.532 91.5845 264.232 87.1932 267.582C82.786 270.92 59.3232 285.47 59.3232 294.384C59.3232 303.334 84.2603 303.334 82.7701 314.534C81.3116 325.709 91.5845 337.997 98.9246 343.597C106.217 349.185 117.933 362.586 112.067 369.31C106.217 375.998 97.4502 377.099 84.2603 374.874C71.0387 372.624 72.4972 379.337 49.0661 375.998C25.6192 372.636 24.1607 386.061 15.3621 393.886C14.839 394.382 13.9988 395.072 13 395.955C24.0656 402.631 28.7264 414.532 47.132 419.95C68.5339 426.227 87.7481 409.464 87.7481 421.607C87.7481 433.762 37.2396 431.259 36.1774 435.008C35.0994 438.794 88.2554 487.765 115.174 484.004C142.03 480.218 161.799 458.048 154.11 454.674C146.437 451.36 158.501 437.524 165.667 440.052C172.769 442.555 166.745 464.313 174.973 469.333C183.232 474.34 180.474 483.568 174.973 495.3C169.503 507.02 180.474 529.999 182.075 543.013C183.739 555.967 195.265 574.81 199.117 594.065C202.954 613.344 218.854 648.491 233.709 669.838C248.516 691.197 259.994 733.068 269.854 743.095C279.747 753.133 305.017 783.672 305.017 802.528C305.017 821.359 331.904 847.701 341.226 852.745C350.547 857.764 370.84 846.879 375.786 835.171C380.748 823.439 408.713 818.819 410.346 808.781C412.01 798.754 414.69 790.808 424.598 789.526C434.49 788.268 434.49 780.334 434.49 769.449C434.49 758.576 435.584 743.083 445.477 733.455C455.306 723.816 456.97 697.861 450.962 687.399C444.906 676.961 448.203 662.303 453.689 651.817C459.158 641.379 456.97 629.212 467.417 628.377C477.833 627.555 493.179 620.407 504.149 609.135C515.152 597.814 548.618 582.321 560.666 574.798C572.731 567.263 609.51 542.566 620.481 528.754C631.419 514.917 662.682 510.346 676.966 499.025C691.25 487.741 685.732 481.887 688.475 469.732C691.265 457.601 737.319 452.557 754.869 452.557C758.467 452.557 761.4 452.291 764.095 451.88C763.889 432.396 756.184 409.247 751.08 400.091Z" fill="#F3F3F3" stroke="#D4D4D4"/>
<path fill-rule="evenodd" clip-rule="evenodd" d="M751.08 395.091C744.437 383.226 739.951 361.153 742.17 352.687C744.405 344.233 757.722 350.982 762.177 340.847C766.632 330.639 724.383 330.639 737.715 317.068C751.08 303.522 751.08 317.068 768.835 317.068C786.654 317.068 793.281 323.866 793.281 332.344C793.281 340.846 811.116 345.914 811.116 345.914C811.116 345.914 839.985 344.233 853.365 344.233C866.713 344.233 880.014 344.233 880.014 350.994C880.014 357.791 864.478 379.852 851.129 379.852C837.781 379.852 837.781 408.673 848.926 410.342C860.023 412.06 868.901 388.318 875.559 388.318C880.363 388.318 884.025 415.241 890.572 442.986C892.3 441.426 894.108 440.301 895.994 440.301C904.793 440.301 900.385 416.825 906.267 410.1C912.117 403.388 909.2 382.174 913.607 382.174C917.983 382.174 944.362 388.874 942.904 383.299C941.43 377.699 959.027 358.686 956.094 348.635C953.129 338.597 966.351 326.272 966.351 313.996C966.351 301.696 980.999 298.334 991.256 291.621C1001.48 284.909 1019.08 275.983 1022.01 281.571C1024.96 287.146 1046.9 291.621 1038.13 281.571C1029.32 271.496 1029.32 264.82 1035.19 262.582C1041.07 260.32 1044 249.157 1044 249.157C1044 249.157 1024.96 246.907 1022.01 240.219C1019.06 233.531 1007.33 226.83 1007.33 221.231C1007.33 215.631 997.09 217.868 988.308 223.468C979.493 229.068 963.402 216.768 944.347 224.605C925.307 232.418 920.9 241.332 912.117 240.231C903.318 239.094 904.777 245.831 897.453 251.407C890.144 257.006 884.263 263.719 879.887 263.719C875.512 263.719 860.832 269.319 860.832 269.319C860.832 269.319 871.105 286.07 865.239 293.883C859.373 301.72 844.693 293.883 828.618 297.257C812.479 300.608 805.155 292.77 793.408 294.996C781.708 297.257 774.384 289.396 768.534 290.533C762.668 291.646 753.87 280.458 756.803 271.52C759.751 262.606 750.937 250.294 745.087 257.006C739.206 263.719 730.454 260.345 730.454 270.419C730.454 280.458 737.779 292.77 728.98 299.471C720.182 306.171 673.288 309.546 664.521 303.946C655.691 298.346 617.627 294.996 616.153 289.396C614.694 283.808 602.963 273.77 595.639 273.77C588.298 273.77 566.31 281.583 560.476 278.233C554.61 274.882 539.93 265.932 529.705 264.844C519.432 263.707 503.309 258.107 501.851 253.644C500.376 249.169 476.945 246.92 472.538 242.457C468.147 237.982 453.498 236.893 453.498 231.293C453.498 225.706 459.364 216.768 459.364 210.043C459.364 203.294 476.929 196.654 476.929 192.155C476.929 187.692 460.838 179.831 460.838 179.831C460.838 179.831 450.565 165.305 438.834 165.305C427.103 165.305 418.304 149.679 408.079 148.566C397.822 147.441 400.739 131.791 394.889 126.191C389.055 120.591 393.43 107.202 403.687 113.891C413.929 120.591 433 113.891 425.66 103.828C418.32 93.7652 405.146 84.8635 405.146 79.2637C405.146 73.6518 413.96 56.8765 403.687 52.3894C393.446 47.9507 384.632 41.2261 381.699 33.425C378.766 25.5877 367.019 20 367.019 20L352.386 21.1248C352.386 21.1248 343.588 39.0128 337.722 41.2382C331.872 43.4757 311.342 46.8259 301.085 52.4015C290.844 57.9893 261.563 44.5884 245.44 44.5884C229.286 44.5884 219.013 56.8886 226.353 60.2509C233.709 63.5891 232.235 87.0527 232.235 87.0527C232.235 87.0527 241.033 116.128 254.207 113.903C267.397 111.677 283.536 123.953 271.788 126.203C260.073 128.441 254.207 138.503 252.749 147.453C251.274 156.379 254.207 167.542 245.44 168.679C236.642 169.792 227.843 172.03 227.843 184.33C227.843 196.654 208.803 193.292 205.871 197.731C202.922 202.218 195.614 224.593 191.19 227.931C186.815 231.281 161.878 232.406 160.419 242.469C158.945 252.507 147.277 264.832 139.937 263.695C132.597 262.582 119.391 258.095 115.016 264.832C110.608 271.532 91.5845 259.232 87.1932 262.582C82.786 265.92 59.3232 280.47 59.3232 289.384C59.3232 298.334 84.2603 298.334 82.7701 309.534C81.3116 320.709 91.5845 332.997 98.9246 338.597C106.217 344.185 117.933 357.586 112.067 364.31C106.217 370.998 97.4502 372.099 84.2603 369.874C71.0387 367.624 72.4972 374.337 49.0661 370.998C25.6192 367.636 24.1607 381.061 15.3621 388.886C14.839 389.382 13.9988 390.072 13 390.955C24.0656 397.631 28.7264 409.532 47.132 414.95C68.5339 421.227 87.7481 404.464 87.7481 416.607C87.7481 428.762 37.2396 426.259 36.1774 430.008C35.0994 433.794 88.2554 482.765 115.174 479.004C142.03 475.218 161.799 453.048 154.11 449.674C146.437 446.36 158.501 432.524 165.667 435.052C172.769 437.555 166.745 459.313 174.973 464.333C183.232 469.34 180.474 478.568 174.973 490.3C169.503 502.02 180.474 524.999 182.075 538.013C183.739 550.967 195.265 569.81 199.117 589.065C202.954 608.344 218.854 643.491 233.709 664.838C248.516 686.197 259.994 728.068 269.854 738.095C279.747 748.133 305.017 778.672 305.017 797.528C305.017 816.359 331.904 842.701 341.226 847.745C350.547 852.764 370.84 841.879 375.786 830.171C380.748 818.439 408.713 813.819 410.346 803.781C412.01 793.754 414.69 785.808 424.598 784.526C434.49 783.268 434.49 775.334 434.49 764.449C434.49 753.576 435.584 738.083 445.477 728.455C455.306 718.816 456.97 692.861 450.962 682.399C444.906 671.961 448.203 657.303 453.689 646.817C459.158 636.379 456.97 624.212 467.417 623.377C477.833 622.555 493.179 615.407 504.149 604.135C515.152 592.814 548.618 577.321 560.666 569.798C572.731 562.263 609.51 537.566 620.481 523.754C631.419 509.917 662.682 505.346 676.966 494.025C691.25 482.741 685.732 476.887 688.475 464.732C691.265 452.601 737.319 447.557 754.869 447.557C758.467 447.557 761.4 447.291 764.095 446.88C763.889 427.396 756.184 404.247 751.08 395.091Z" fill="#F3F3F3" stroke="#DFDFDF"/>
<path fill-rule="evenodd" clip-rule="evenodd" d="M751.08 386.091C744.437 374.226 739.951 352.153 742.17 343.687C744.405 335.233 757.722 341.982 762.177 331.847C766.632 321.639 724.383 321.639 737.715 308.068C751.08 294.522 751.08 308.068 768.835 308.068C786.654 308.068 793.281 314.866 793.281 323.344C793.281 331.846 811.116 336.914 811.116 336.914C811.116 336.914 839.985 335.233 853.365 335.233C866.713 335.233 880.014 335.233 880.014 341.994C880.014 348.791 864.478 370.852 851.129 370.852C837.781 370.852 837.781 399.673 848.926 401.342C860.023 403.06 868.901 379.318 875.559 379.318C880.363 379.318 884.025 406.241 890.572 433.986C892.3 432.426 894.108 431.301 895.994 431.301C904.793 431.301 900.385 407.825 906.267 401.1C912.117 394.388 909.2 373.174 913.607 373.174C917.983 373.174 944.362 379.874 942.904 374.299C941.43 368.699 959.027 349.686 956.094 339.635C953.129 329.597 966.351 317.272 966.351 304.996C966.351 292.696 980.999 289.334 991.256 282.621C1001.48 275.909 1019.08 266.983 1022.01 272.571C1024.96 278.146 1046.9 282.621 1038.13 272.571C1029.32 262.496 1029.32 255.82 1035.19 253.582C1041.07 251.32 1044 240.157 1044 240.157C1044 240.157 1024.96 237.907 1022.01 231.219C1019.06 224.531 1007.33 217.83 1007.33 212.231C1007.33 206.631 997.09 208.868 988.308 214.468C979.493 220.068 963.402 207.768 944.347 215.605C925.307 223.418 920.9 232.332 912.117 231.231C903.318 230.094 904.777 236.831 897.453 242.407C890.144 248.006 884.263 254.719 879.887 254.719C875.512 254.719 860.832 260.319 860.832 260.319C860.832 260.319 871.105 277.07 865.239 284.883C859.373 292.72 844.693 284.883 828.618 288.257C812.479 291.608 805.155 283.77 793.408 285.996C781.708 288.257 774.384 280.396 768.534 281.533C762.668 282.646 753.87 271.458 756.803 262.52C759.751 253.606 750.937 241.294 745.087 248.006C739.206 254.719 730.454 251.345 730.454 261.419C730.454 271.458 737.779 283.77 728.98 290.471C720.182 297.171 673.288 300.546 664.521 294.946C655.691 289.346 617.627 285.996 616.153 280.396C614.694 274.808 602.963 264.77 595.639 264.77C588.298 264.77 566.31 272.583 560.476 269.233C554.61 265.882 539.93 256.932 529.705 255.844C519.432 254.707 503.309 249.107 501.851 244.644C500.376 240.169 476.945 237.92 472.538 233.457C468.147 228.982 453.498 227.893 453.498 222.293C453.498 216.706 459.364 207.768 459.364 201.043C459.364 194.294 476.929 187.654 476.929 183.155C476.929 178.692 460.838 170.831 460.838 170.831C460.838 170.831 450.565 156.305 438.834 156.305C427.103 156.305 418.304 140.679 408.079 139.566C397.822 138.441 400.739 122.791 394.889 117.191C389.055 111.591 393.43 98.2023 403.687 104.891C413.929 111.591 433 104.891 425.66 94.8279C418.32 84.7652 405.146 75.8635 405.146 70.2637C405.146 64.6518 413.96 47.8765 403.687 43.3894C393.446 38.9507 384.632 32.2261 381.699 24.425C378.766 16.5877 367.019 11 367.019 11L352.386 12.1248C352.386 12.1248 343.588 30.0128 337.722 32.2382C331.872 34.4757 311.342 37.8259 301.085 43.4015C290.844 48.9893 261.563 35.5884 245.44 35.5884C229.286 35.5884 219.013 47.8886 226.353 51.2509C233.709 54.5891 232.235 78.0527 232.235 78.0527C232.235 78.0527 241.033 107.128 254.207 104.903C267.397 102.677 283.536 114.953 271.788 117.203C260.073 119.441 254.207 129.503 252.749 138.453C251.274 147.379 254.207 158.542 245.44 159.679C236.642 160.792 227.843 163.03 227.843 175.33C227.843 187.654 208.803 184.292 205.871 188.731C202.922 193.218 195.614 215.593 191.19 218.931C186.815 222.281 161.878 223.406 160.419 233.469C158.945 243.507 147.277 255.832 139.937 254.695C132.597 253.582 119.391 249.095 115.016 255.832C110.608 262.532 91.5845 250.232 87.1932 253.582C82.786 256.92 59.3232 271.47 59.3232 280.384C59.3232 289.334 84.2603 289.334 82.7701 300.534C81.3116 311.709 91.5845 323.997 98.9246 329.597C106.217 335.185 117.933 348.586 112.067 355.31C106.217 361.998 97.4502 363.099 84.2603 360.874C71.0387 358.624 72.4972 365.337 49.0661 361.998C25.6192 358.636 24.1607 372.061 15.3621 379.886C14.839 380.382 13.9988 381.072 13 381.955C24.0656 388.631 28.7264 400.532 47.132 405.95C68.5339 412.227 87.7481 395.464 87.7481 407.607C87.7481 419.762 37.2396 417.259 36.1774 421.008C35.0994 424.794 88.2554 473.765 115.174 470.004C142.03 466.218 161.799 444.048 154.11 440.674C146.437 437.36 158.501 423.524 165.667 426.052C172.769 428.555 166.745 450.313 174.973 455.333C183.232 460.34 180.474 469.568 174.973 481.3C169.503 493.02 180.474 515.999 182.075 529.013C183.739 541.967 195.265 560.81 199.117 580.065C202.954 599.344 218.854 634.491 233.709 655.838C248.516 677.197 259.994 719.068 269.854 729.095C279.747 739.133 305.017 769.672 305.017 788.528C305.017 807.359 331.904 833.701 341.226 838.745C350.547 843.764 370.84 832.879 375.786 821.171C380.748 809.439 408.713 804.819 410.346 794.781C412.01 784.754 414.69 776.808 424.598 775.526C434.49 774.268 434.49 766.334 434.49 755.449C434.49 744.576 435.584 729.083 445.477 719.455C455.306 709.816 456.97 683.861 450.962 673.399C444.906 662.961 448.203 648.303 453.689 637.817C459.158 627.379 456.97 615.212 467.417 614.377C477.833 613.555 493.179 606.407 504.149 595.135C515.152 583.814 548.618 568.321 560.666 560.798C572.731 553.263 609.51 528.566 620.481 514.754C631.419 500.917 662.682 496.346 676.966 485.025C691.25 473.741 685.732 467.887 688.475 455.732C691.265 443.601 737.319 438.557 754.869 438.557C758.467 438.557 761.4 438.291 764.095 437.88C763.889 418.396 756.184 395.247 751.08 386.091Z" fill="#F6F6F6" stroke="black" stroke-opacity="0.04"/>
<path fill-rule="evenodd" clip-rule="evenodd" d="M751.08 386.091C744.437 374.226 739.951 352.153 742.17 343.687C744.405 335.233 757.722 341.982 762.177 331.847C766.632 321.639 724.383 321.639 737.715 308.068C751.08 294.522 751.08 308.068 768.835 308.068C786.654 308.068 793.281 314.866 793.281 323.344C793.281 331.846 811.116 336.914 811.116 336.914C811.116 336.914 839.985 335.233 853.365 335.233C866.713 335.233 880.014 335.233 880.014 341.994C880.014 348.791 864.478 370.852 851.129 370.852C837.781 370.852 837.781 399.673 848.926 401.342C860.023 403.06 868.901 379.318 875.559 379.318C880.363 379.318 884.025 406.241 890.572 433.986C892.3 432.426 894.108 431.301 895.994 431.301C904.793 431.301 900.385 407.825 906.267 401.1C912.117 394.388 909.2 373.174 913.607 373.174C917.983 373.174 944.362 379.874 942.904 374.299C941.43 368.699 959.027 349.686 956.094 339.635C953.129 329.597 966.351 317.272 966.351 304.996C966.351 292.696 980.999 289.334 991.256 282.621C1001.48 275.909 1019.08 266.983 1022.01 272.571C1024.96 278.146 1046.9 282.621 1038.13 272.571C1029.32 262.496 1029.32 255.82 1035.19 253.582C1041.07 251.32 1044 240.157 1044 240.157C1044 240.157 1024.96 237.907 1022.01 231.219C1019.06 224.531 1007.33 217.83 1007.33 212.231C1007.33 206.631 997.09 208.868 988.308 214.468C979.493 220.068 963.402 207.768 944.347 215.605C925.307 223.418 920.9 232.332 912.117 231.231C903.318 230.094 904.777 236.831 897.453 242.407C890.144 248.006 884.263 254.719 879.887 254.719C875.512 254.719 860.832 260.319 860.832 260.319C860.832 260.319 871.105 277.07 865.239 284.883C859.373 292.72 844.693 284.883 828.618 288.257C812.479 291.608 805.155 283.77 793.408 285.996C781.708 288.257 774.384 280.396 768.534 281.533C762.668 282.646 753.87 271.458 756.803 262.52C759.751 253.606 750.937 241.294 745.087 248.006C739.206 254.719 730.454 251.345 730.454 261.419C730.454 271.458 737.779 283.77 728.98 290.471C720.182 297.171 673.288 300.546 664.521 294.946C655.691 289.346 617.627 285.996 616.153 280.396C614.694 274.808 602.963 264.77 595.639 264.77C588.298 264.77 566.31 272.583 560.476 269.233C554.61 265.882 539.93 256.932 529.705 255.844C519.432 254.707 503.309 249.107 501.851 244.644C500.376 240.169 476.945 237.92 472.538 233.457C468.147 228.982 453.498 227.893 453.498 222.293C453.498 216.706 459.364 207.768 459.364 201.043C459.364 194.294 476.929 187.654 476.929 183.155C476.929 178.692 460.838 170.831 460.838 170.831C460.838 170.831 450.565 156.305 438.834 156.305C427.103 156.305 418.304 140.679 408.079 139.566C397.822 138.441 400.739 122.791 394.889 117.191C389.055 111.591 393.43 98.2023 403.687 104.891C413.929 111.591 433 104.891 425.66 94.8279C418.32 84.7652 405.146 75.8635 405.146 70.2637C405.146 64.6518 413.96 47.8765 403.687 43.3894C393.446 38.9507 384.632 32.2261 381.699 24.425C378.766 16.5877 367.019 11 367.019 11L352.386 12.1248C352.386 12.1248 343.588 30.0128 337.722 32.2382C331.872 34.4757 311.342 37.8259 301.085 43.4015C290.844 48.9893 261.563 35.5884 245.44 35.5884C229.286 35.5884 219.013 47.8886 226.353 51.2509C233.709 54.5891 232.235 78.0527 232.235 78.0527C232.235 78.0527 241.033 107.128 254.207 104.903C267.397 102.677 283.536 114.953 271.788 117.203C260.073 119.441 254.207 129.503 252.749 138.453C251.274 147.379 254.207 158.542 245.44 159.679C236.642 160.792 227.843 163.03 227.843 175.33C227.843 187.654 208.803 184.292 205.871 188.731C202.922 193.218 195.614 215.593 191.19 218.931C186.815 222.281 161.878 223.406 160.419 233.469C158.945 243.507 147.277 255.832 139.937 254.695C132.597 253.582 119.391 249.095 115.016 255.832C110.608 262.532 91.5845 250.232 87.1932 253.582C82.786 256.92 59.3232 271.47 59.3232 280.384C59.3232 289.334 84.2603 289.334 82.7701 300.534C81.3116 311.709 91.5845 323.997 98.9246 329.597C106.217 335.185 117.933 348.586 112.067 355.31C106.217 361.998 97.4502 363.099 84.2603 360.874C71.0387 358.624 72.4972 365.337 49.0661 361.998C25.6192 358.636 24.1607 372.061 15.3621 379.886C14.839 380.382 13.9988 381.072 13 381.955C24.0656 388.631 28.7264 400.532 47.132 405.95C68.5339 412.227 87.7481 395.464 87.7481 407.607C87.7481 419.762 37.2396 417.259 36.1774 421.008C35.0994 424.794 88.2554 473.765 115.174 470.004C142.03 466.218 161.799 444.048 154.11 440.674C146.437 437.36 158.501 423.524 165.667 426.052C172.769 428.555 166.745 450.313 174.973 455.333C183.232 460.34 180.474 469.568 174.973 481.3C169.503 493.02 180.474 515.999 182.075 529.013C183.739 541.967 195.265 560.81 199.117 580.065C202.954 599.344 218.854 634.491 233.709 655.838C248.516 677.197 259.994 719.068 269.854 729.095C279.747 739.133 305.017 769.672 305.017 788.528C305.017 807.359 331.904 833.701 341.226 838.745C350.547 843.764 370.84 832.879 375.786 821.171C380.748 809.439 408.713 804.819 410.346 794.781C412.01 784.754 414.69 776.808 424.598 775.526C434.49 774.268 434.49 766.334 434.49 755.449C434.49 744.576 435.584 729.083 445.477 719.455C455.306 709.816 456.97 683.861 450.962 673.399C444.906 662.961 448.203 648.303 453.689 637.817C459.158 627.379 456.97 615.212 467.417 614.377C477.833 613.555 493.179 606.407 504.149 595.135C515.152 583.814 548.618 568.321 560.666 560.798C572.731 553.263 609.51 528.566 620.481 514.754C631.419 500.917 662.682 496.346 676.966 485.025C691.25 473.741 685.732 467.887 688.475 455.732C691.265 443.601 737.319 438.557 754.869 438.557C758.467 438.557 761.4 438.291 764.095 437.88C763.889 418.396 756.184 395.247 751.08 386.091Z" fill="#F6F6F6" stroke="black" stroke-opacity="0.04"/>
<path fill-rule="evenodd" clip-rule="evenodd" d="M751.08 388.091C744.437 376.226 739.951 354.153 742.17 345.687C744.405 337.233 757.722 343.982 762.177 333.847C766.632 323.639 724.383 323.639 737.715 310.068C751.08 296.522 751.08 310.068 768.835 310.068C786.654 310.068 793.281 316.866 793.281 325.344C793.281 333.846 811.116 338.914 811.116 338.914C811.116 338.914 839.985 337.233 853.365 337.233C866.713 337.233 880.014 337.233 880.014 343.994C880.014 350.791 864.478 372.852 851.129 372.852C837.781 372.852 837.781 401.673 848.926 403.342C860.023 405.06 868.901 381.318 875.559 381.318C880.363 381.318 884.025 408.241 890.572 435.986C892.3 434.426 894.108 433.301 895.994 433.301C904.793 433.301 900.385 409.825 906.267 403.1C912.117 396.388 909.2 375.174 913.607 375.174C917.983 375.174 944.362 381.874 942.904 376.299C941.43 370.699 959.027 351.686 956.094 341.635C953.129 331.597 966.351 319.272 966.351 306.996C966.351 294.696 980.999 291.334 991.256 284.621C1001.48 277.909 1019.08 268.983 1022.01 274.571C1024.96 280.146 1046.9 284.621 1038.13 274.571C1029.32 264.496 1029.32 257.82 1035.19 255.582C1041.07 253.32 1044 242.157 1044 242.157C1044 242.157 1024.96 239.907 1022.01 233.219C1019.06 226.531 1007.33 219.83 1007.33 214.231C1007.33 208.631 997.09 210.868 988.308 216.468C979.493 222.068 963.402 209.768 944.347 217.605C925.307 225.418 920.9 234.332 912.117 233.231C903.318 232.094 904.777 238.831 897.453 244.407C890.144 250.006 884.263 256.719 879.887 256.719C875.512 256.719 860.832 262.319 860.832 262.319C860.832 262.319 871.105 279.07 865.239 286.883C859.373 294.72 844.693 286.883 828.618 290.257C812.479 293.608 805.155 285.77 793.408 287.996C781.708 290.257 774.384 282.396 768.534 283.533C762.668 284.646 753.87 273.458 756.803 264.52C759.751 255.606 750.937 243.294 745.087 250.006C739.206 256.719 730.454 253.345 730.454 263.419C730.454 273.458 737.779 285.77 728.98 292.471C720.182 299.171 673.288 302.546 664.521 296.946C655.691 291.346 617.627 287.996 616.153 282.396C614.694 276.808 602.963 266.77 595.639 266.77C588.298 266.77 566.31 274.583 560.476 271.233C554.61 267.882 539.93 258.932 529.705 257.844C519.432 256.707 503.309 251.107 501.851 246.644C500.376 242.169 476.945 239.92 472.538 235.457C468.147 230.982 453.498 229.893 453.498 224.293C453.498 218.706 459.364 209.768 459.364 203.043C459.364 196.294 476.929 189.654 476.929 185.155C476.929 180.692 460.838 172.831 460.838 172.831C460.838 172.831 450.565 158.305 438.834 158.305C427.103 158.305 418.304 142.679 408.079 141.566C397.822 140.441 400.739 124.791 394.889 119.191C389.055 113.591 393.43 100.202 403.687 106.891C413.929 113.591 433 106.891 425.66 96.8279C418.32 86.7652 405.146 77.8635 405.146 72.2637C405.146 66.6518 413.96 49.8765 403.687 45.3894C393.446 40.9507 384.632 34.2261 381.699 26.425C378.766 18.5877 367.019 13 367.019 13L352.386 14.1248C352.386 14.1248 343.588 32.0128 337.722 34.2382C331.872 36.4757 311.342 39.8259 301.085 45.4015C290.844 50.9893 261.563 37.5884 245.44 37.5884C229.286 37.5884 219.013 49.8886 226.353 53.2509C233.709 56.5891 232.235 80.0527 232.235 80.0527C232.235 80.0527 241.033 109.128 254.207 106.903C267.397 104.677 283.536 116.953 271.788 119.203C260.073 121.441 254.207 131.503 252.749 140.453C251.274 149.379 254.207 160.542 245.44 161.679C236.642 162.792 227.843 165.03 227.843 177.33C227.843 189.654 208.803 186.292 205.871 190.731C202.922 195.218 195.614 217.593 191.19 220.931C186.815 224.281 161.878 225.406 160.419 235.469C158.945 245.507 147.277 257.832 139.937 256.695C132.597 255.582 119.391 251.095 115.016 257.832C110.608 264.532 91.5845 252.232 87.1932 255.582C82.786 258.92 59.3232 273.47 59.3232 282.384C59.3232 291.334 84.2603 291.334 82.7701 302.534C81.3116 313.709 91.5845 325.997 98.9246 331.597C106.217 337.185 117.933 350.586 112.067 357.31C106.217 363.998 97.4502 365.099 84.2603 362.874C71.0387 360.624 72.4972 367.337 49.0661 363.998C25.6192 360.636 24.1607 374.061 15.3621 381.886C14.839 382.382 13.9988 383.072 13 383.955C24.0656 390.631 28.7264 402.532 47.132 407.95C68.5339 414.227 87.7481 397.464 87.7481 409.607C87.7481 421.762 37.2396 419.259 36.1774 423.008C35.0994 426.794 88.2554 475.765 115.174 472.004C142.03 468.218 161.799 446.048 154.11 442.674C146.437 439.36 158.501 425.524 165.667 428.052C172.769 430.555 166.745 452.313 174.973 457.333C183.232 462.34 180.474 471.568 174.973 483.3C169.503 495.02 180.474 517.999 182.075 531.013C183.739 543.967 195.265 562.81 199.117 582.065C202.954 601.344 218.854 636.491 233.709 657.838C248.516 679.197 259.994 721.068 269.854 731.095C279.747 741.133 305.017 771.672 305.017 790.528C305.017 809.359 331.904 835.701 341.226 840.745C350.547 845.764 370.84 834.879 375.786 823.171C380.748 811.439 408.713 806.819 410.346 796.781C412.01 786.754 414.69 778.808 424.598 777.526C434.49 776.268 434.49 768.334 434.49 757.449C434.49 746.576 435.584 731.083 445.477 721.455C455.306 711.816 456.97 685.861 450.962 675.399C444.906 664.961 448.203 650.303 453.689 639.817C459.158 629.379 456.97 617.212 467.417 616.377C477.833 615.555 493.179 608.407 504.149 597.135C515.152 585.814 548.618 570.321 560.666 562.798C572.731 555.263 609.51 530.566 620.481 516.754C631.419 502.917 662.682 498.346 676.966 487.025C691.25 475.741 685.732 469.887 688.475 457.732C691.265 445.601 737.319 440.557 754.869 440.557C758.467 440.557 761.4 440.291 764.095 439.88C763.889 420.396 756.184 397.247 751.08 388.091Z" fill="#F6F6F6" stroke="#E5E5E5"/>
<path fill-rule="evenodd" clip-rule="evenodd" d="M751.08 381.091C744.437 369.226 739.951 347.153 742.17 338.687C744.405 330.233 757.722 336.982 762.177 326.847C766.632 316.639 724.383 316.639 737.715 303.068C751.08 289.522 751.08 303.068 768.835 303.068C786.654 303.068 793.281 309.866 793.281 318.344C793.281 326.846 811.116 331.914 811.116 331.914C811.116 331.914 839.985 330.233 853.365 330.233C866.713 330.233 880.014 330.233 880.014 336.994C880.014 343.791 864.478 365.852 851.129 365.852C837.781 365.852 837.781 394.673 848.926 396.342C860.023 398.06 868.901 374.318 875.559 374.318C880.363 374.318 884.025 401.241 890.572 428.986C892.3 427.426 894.108 426.301 895.994 426.301C904.793 426.301 900.385 402.825 906.267 396.1C912.117 389.388 909.2 368.174 913.607 368.174C917.983 368.174 944.362 374.874 942.904 369.299C941.43 363.699 959.027 344.686 956.094 334.635C953.129 324.597 966.351 312.272 966.351 299.996C966.351 287.696 980.999 284.334 991.256 277.621C1001.48 270.909 1019.08 261.983 1022.01 267.571C1024.96 273.146 1046.9 277.621 1038.13 267.571C1029.32 257.496 1029.32 250.82 1035.19 248.582C1041.07 246.32 1044 235.157 1044 235.157C1044 235.157 1024.96 232.907 1022.01 226.219C1019.06 219.531 1007.33 212.83 1007.33 207.231C1007.33 201.631 997.09 203.868 988.308 209.468C979.493 215.068 963.402 202.768 944.347 210.605C925.307 218.418 920.9 227.332 912.117 226.231C903.318 225.094 904.777 231.831 897.453 237.407C890.144 243.006 884.263 249.719 879.887 249.719C875.512 249.719 860.832 255.319 860.832 255.319C860.832 255.319 871.105 272.07 865.239 279.883C859.373 287.72 844.693 279.883 828.618 283.257C812.479 286.608 805.155 278.77 793.408 280.996C781.708 283.257 774.384 275.396 768.534 276.533C762.668 277.646 753.87 266.458 756.803 257.52C759.751 248.606 750.937 236.294 745.087 243.006C739.206 249.719 730.454 246.345 730.454 256.419C730.454 266.458 737.779 278.77 728.98 285.471C720.182 292.171 673.288 295.546 664.521 289.946C655.691 284.346 617.627 280.996 616.153 275.396C614.694 269.808 602.963 259.77 595.639 259.77C588.298 259.77 566.31 267.583 560.476 264.233C554.61 260.882 539.93 251.932 529.705 250.844C519.432 249.707 503.309 244.107 501.851 239.644C500.376 235.169 476.945 232.92 472.538 228.457C468.147 223.982 453.498 222.893 453.498 217.293C453.498 211.706 459.364 202.768 459.364 196.043C459.364 189.294 476.929 182.654 476.929 178.155C476.929 173.692 460.838 165.831 460.838 165.831C460.838 165.831 450.565 151.305 438.834 151.305C427.103 151.305 418.304 135.679 408.079 134.566C397.822 133.441 400.739 117.791 394.889 112.191C389.055 106.591 393.43 93.2023 403.687 99.8907C413.929 106.591 433 99.8907 425.66 89.8279C418.32 79.7652 405.146 70.8635 405.146 65.2637C405.146 59.6518 413.96 42.8765 403.687 38.3894C393.446 33.9507 384.632 27.2261 381.699 19.425C378.766 11.5877 367.019 6 367.019 6L352.386 7.1248C352.386 7.1248 343.588 25.0128 337.722 27.2382C331.872 29.4757 311.342 32.8259 301.085 38.4015C290.844 43.9893 261.563 30.5884 245.44 30.5884C229.286 30.5884 219.013 42.8886 226.353 46.2509C233.709 49.5891 232.235 73.0527 232.235 73.0527C232.235 73.0527 241.033 102.128 254.207 99.9028C267.397 97.6773 283.536 109.953 271.788 112.203C260.073 114.441 254.207 124.503 252.749 133.453C251.274 142.379 254.207 153.542 245.44 154.679C236.642 155.792 227.843 158.03 227.843 170.33C227.843 182.654 208.803 179.292 205.871 183.731C202.922 188.218 195.614 210.593 191.19 213.931C186.815 217.281 161.878 218.406 160.419 228.469C158.945 238.507 147.277 250.832 139.937 249.695C132.597 248.582 119.391 244.095 115.016 250.832C110.608 257.532 91.5845 245.232 87.1932 248.582C82.786 251.92 59.3232 266.47 59.3232 275.384C59.3232 284.334 84.2603 284.334 82.7701 295.534C81.3116 306.709 91.5845 318.997 98.9246 324.597C106.217 330.185 117.933 343.586 112.067 350.31C106.217 356.998 97.4502 358.099 84.2603 355.874C71.0387 353.624 72.4972 360.337 49.0661 356.998C25.6192 353.636 24.1607 367.061 15.3621 374.886C14.839 375.382 13.9988 376.072 13 376.955C24.0656 383.631 28.7264 395.532 47.132 400.95C68.5339 407.227 87.7481 390.464 87.7481 402.607C87.7481 414.762 37.2396 412.259 36.1774 416.008C35.0994 419.794 88.2554 468.765 115.174 465.004C142.03 461.218 161.799 439.048 154.11 435.674C146.437 432.36 158.501 418.524 165.667 421.052C172.769 423.555 166.745 445.313 174.973 450.333C183.232 455.34 180.474 464.568 174.973 476.3C169.503 488.02 180.474 510.999 182.075 524.013C183.739 536.967 195.265 555.81 199.117 575.065C202.954 594.344 218.854 629.491 233.709 650.838C248.516 672.197 259.994 714.068 269.854 724.095C279.747 734.133 305.017 764.672 305.017 783.528C305.017 802.359 331.904 828.701 341.226 833.745C350.547 838.764 370.84 827.879 375.786 816.171C380.748 804.439 408.713 799.819 410.346 789.781C412.01 779.754 414.69 771.808 424.598 770.526C434.49 769.268 434.49 761.334 434.49 750.449C434.49 739.576 435.584 724.083 445.477 714.455C455.306 704.816 456.97 678.861 450.962 668.399C444.906 657.961 448.203 643.303 453.689 632.817C459.158 622.379 456.97 610.212 467.417 609.377C477.833 608.555 493.179 601.407 504.149 590.135C515.152 578.814 548.618 563.321 560.666 555.798C572.731 548.263 609.51 523.566 620.481 509.754C631.419 495.917 662.682 491.346 676.966 480.025C691.25 468.741 685.732 462.887 688.475 450.732C691.265 438.601 737.319 433.557 754.869 433.557C758.467 433.557 761.4 433.291 764.095 432.88C763.889 413.396 756.184 390.247 751.08 381.091Z" fill="#FCFCFC" stroke="#EAEAEA"/>
<path fill-rule="evenodd" clip-rule="evenodd" d="M751.08 376.091C744.437 364.226 739.951 342.153 742.17 333.687C744.405 325.233 757.722 331.982 762.177 321.847C766.632 311.639 724.383 311.639 737.715 298.068C751.08 284.522 751.08 298.068 768.835 298.068C786.654 298.068 793.281 304.866 793.281 313.344C793.281 321.847 811.116 326.914 811.116 326.914C811.116 326.914 839.985 325.233 853.365 325.233C866.713 325.233 880.014 325.233 880.014 331.994C880.014 338.791 864.478 360.852 851.129 360.852C837.781 360.852 837.781 389.673 848.926 391.342C860.023 393.06 868.901 369.318 875.559 369.318C880.363 369.318 884.025 396.241 890.572 423.986C892.3 422.426 894.108 421.301 895.994 421.301C904.793 421.301 900.385 397.825 906.267 391.1C912.117 384.388 909.2 363.174 913.607 363.174C917.983 363.174 944.362 369.874 942.904 364.299C941.43 358.699 959.027 339.686 956.094 329.635C953.129 319.597 966.351 307.273 966.351 294.996C966.351 282.696 980.999 279.334 991.256 272.621C1001.48 265.909 1019.08 256.983 1022.01 262.571C1024.96 268.146 1046.9 272.621 1038.13 262.571C1029.32 252.496 1029.32 245.82 1035.19 243.582C1041.07 241.32 1044 230.157 1044 230.157C1044 230.157 1024.96 227.907 1022.01 221.219C1019.06 214.531 1007.33 207.83 1007.33 202.231C1007.33 196.631 997.09 198.868 988.308 204.468C979.493 210.068 963.402 197.768 944.347 205.605C925.307 213.418 920.9 222.332 912.117 221.231C903.318 220.094 904.777 226.831 897.453 232.407C890.144 238.007 884.263 244.719 879.887 244.719C875.512 244.719 860.832 250.319 860.832 250.319C860.832 250.319 871.105 267.07 865.239 274.883C859.373 282.72 844.693 274.883 828.618 278.257C812.479 281.608 805.155 273.77 793.408 275.996C781.708 278.257 774.384 270.396 768.534 271.533C762.668 272.646 753.87 261.458 756.803 252.52C759.751 243.606 750.937 231.294 745.087 238.007C739.206 244.719 730.454 241.345 730.454 251.419C730.454 261.458 737.779 273.77 728.98 280.471C720.182 287.171 673.288 290.546 664.521 284.946C655.691 279.346 617.627 275.996 616.153 270.396C614.694 264.808 602.963 254.77 595.639 254.77C588.299 254.77 566.31 262.583 560.476 259.233C554.61 255.882 539.93 246.932 529.705 245.844C519.432 244.707 503.309 239.107 501.851 234.644C500.376 230.169 476.945 227.92 472.538 223.457C468.147 218.982 453.498 217.893 453.498 212.293C453.498 206.706 459.364 197.768 459.364 191.043C459.364 184.294 476.929 177.654 476.929 173.155C476.929 168.692 460.838 160.831 460.838 160.831C460.838 160.831 450.565 146.305 438.834 146.305C427.103 146.305 418.304 130.679 408.079 129.566C397.822 128.441 400.739 112.791 394.889 107.191C389.055 101.591 393.43 88.2023 403.687 94.8907C413.929 101.591 433 94.8907 425.66 84.8279C418.32 74.7652 405.146 65.8635 405.146 60.2637C405.146 54.6518 413.96 37.8766 403.687 33.3894C393.446 28.9507 384.632 22.2261 381.699 14.425C378.766 6.58772 367.019 1 367.019 1L352.386 2.1248C352.386 2.1248 343.588 20.0128 337.722 22.2382C331.872 24.4757 311.342 27.8259 301.085 33.4015C290.844 38.9893 261.563 25.5884 245.44 25.5884C229.286 25.5884 219.013 37.8886 226.353 41.251C233.709 44.5891 232.235 68.0527 232.235 68.0527C232.235 68.0527 241.033 97.1282 254.207 94.9028C267.397 92.6774 283.536 104.953 271.788 107.203C260.073 109.441 254.207 119.503 252.749 128.453C251.274 137.379 254.207 148.542 245.44 149.679C236.642 150.792 227.843 153.03 227.843 165.33C227.843 177.654 208.803 174.292 205.871 178.731C202.922 183.218 195.614 205.593 191.19 208.931C186.815 212.281 161.878 213.406 160.419 223.469C158.945 233.507 147.277 245.832 139.937 244.695C132.597 243.582 119.391 239.095 115.016 245.832C110.608 252.532 91.5845 240.232 87.1932 243.582C82.786 246.92 59.3232 261.47 59.3232 270.384C59.3232 279.334 84.2603 279.334 82.7701 290.534C81.3116 301.709 91.5845 313.997 98.9246 319.597C106.217 325.185 117.933 338.586 112.067 345.31C106.217 351.999 97.4502 353.099 84.2603 350.874C71.0387 348.624 72.4972 355.337 49.0661 351.998C25.6192 348.636 24.1607 362.061 15.3621 369.886C14.839 370.382 13.9988 371.072 13 371.955C24.0656 378.631 28.7264 390.532 47.132 395.95C68.5339 402.228 87.7481 385.464 87.7481 397.607C87.7481 409.762 37.2396 407.259 36.1774 411.008C35.0994 414.794 88.2554 463.765 115.174 460.004C142.03 456.218 161.799 434.048 154.11 430.674C146.437 427.36 158.501 413.524 165.667 416.052C172.769 418.555 166.745 440.313 174.973 445.333C183.232 450.34 180.474 459.568 174.973 471.3C169.503 483.02 180.474 505.999 182.075 519.013C183.739 531.967 195.265 550.81 199.117 570.065C202.954 589.344 218.854 624.491 233.709 645.838C248.516 667.197 259.994 709.068 269.854 719.095C279.747 729.133 305.017 759.672 305.017 778.528C305.017 797.359 331.904 823.701 341.226 828.745C350.547 833.764 370.84 822.879 375.786 811.171C380.748 799.44 408.713 794.819 410.346 784.781C412.01 774.754 414.69 766.808 424.598 765.526C434.49 764.268 434.49 756.334 434.49 745.449C434.49 734.576 435.584 719.083 445.477 709.455C455.306 699.816 456.97 673.861 450.962 663.399C444.906 652.961 448.203 638.303 453.689 627.817C459.158 617.379 456.97 605.212 467.417 604.377C477.833 603.555 493.179 596.407 504.149 585.135C515.152 573.814 548.618 558.321 560.666 550.798C572.731 543.263 609.51 518.566 620.481 504.754C631.419 490.917 662.682 486.346 676.966 475.025C691.249 463.741 685.732 457.887 688.475 445.732C691.265 433.601 737.319 428.558 754.869 428.558C758.467 428.558 761.4 428.291 764.095 427.88C763.889 408.396 756.184 385.247 751.08 376.091Z" fill="white" stroke="#ECECEC"/>
<defs>
<filter id="filter0_d_2932_2670" x="0.258692" y="32.5912" width="1056.27" height="853.809" filterUnits="userSpaceOnUse" color-interpolation-filters="sRGB">
<feFlood flood-opacity="0" result="BackgroundImageFix"/>
<feColorMatrix in="SourceAlpha" type="matrix" values="0 0 0 0 0 0 0 0 0 0 0 0 0 0 0 0 0 0 127 0" result="hardAlpha"/>
<feOffset dy="4"/>
<feGaussianBlur stdDeviation="5.95"/>
<feComposite in2="hardAlpha" operator="out"/>
<feColorMatrix type="matrix" values="0 0 0 0 0 0 0 0 0 0 0 0 0 0 0 0 0 0 0.25 0"/>
<feBlend mode="normal" in2="BackgroundImageFix" result="effect1_dropShadow_2932_2670"/>
<feBlend mode="normal" in="SourceGraphic" in2="effect1_dropShadow_2932_2670" result="shape"/>
</filter>
</defs>
</svg>
